# xmcd
#
# Track frame offsets:
#	182
#	17960
#	35722
#	49600
#	68065
#	86922
#	96112
#	117600
#	129822
#	144660
#	160640
#	178177
#	194710
#	212730
#	223922
#	241542
#	252750
#	274282
#
# Disc length: 3881 seconds
#
# Revision: 2
# Processed by: cddbd v1.4PL0 Copyright (c) Steve Scherf et al.
# Submitted via: MusicWizard 6.0.2
#
DISCID=100f2712
DTITLE=Blues Band, The - The * Collection
DYEAR=1900
DGENRE=Blues
TTITLE0=Talk To Me Baby
TTITLE1=Going Home
TTITLE2=Twenty Nine Ways
TTITLE3=Noah Lewis Blues
TTITLE4=Hallelujah I Love Her So
TTITLE5=Hey, Hey, Little Girl
TTITLE6=That's Alright
TTITLE7=Talkin' Woman Blues
TTITLE8=Itchy Feet
TTITLE9=Got To Love You Baby
TTITLE10=So Lonely
TTITLE11=Rolling Log
TTITLE12=Oo Oo-Ee
TTITLE13=Ain't It Tough
TTITLE14=So Bad
TTITLE15=Not Me
TTITLE16=The Great Crash
TTITLE17=When I Itches I Scratch
EXTD=
EXTT0=
EXTT1=
EXTT2=
EXTT3=
EXTT4=
EXTT5=
EXTT6=
EXTT7=
EXTT8=
EXTT9=
EXTT10=
EXTT11=
EXTT12=
EXTT13=
EXTT14=
EXTT15=
EXTT16=
EXTT17=
PLAYORDER=
